HIERARCHY
ROOT Hips
{
	OFFSET 0.000000 0.000000 0.000000
	CHANNELS 6 Xposition Yposition Zposition Zrotation Yrotation Xrotation 
	JOINT LHipJoint
	{
		OFFSET 0.000000 0.000000 0.000000
		CHANNELS 3 Zrotation Yrotation Xrotation
		JOINT LeftUpLeg
		{
			OFFSET 1.363060 -1.794630 0.839290
			CHANNELS 3 Zrotation Yrotation Xrotation
			JOINT LeftLeg
			{
				OFFSET 2.448110 -6.726130 0.000000
				CHANNELS 3 Zrotation Yrotation Xrotation
				JOINT LeftFoot
				{
					OFFSET 2.562200 -7.039590 0.000000
					CHANNELS 3 Zrotation Yrotation Xrotation
					JOINT LeftToeBase
					{
						OFFSET 0.157640 -0.433110 2.322550
						CHANNELS 3 Zrotation Yrotation Xrotation
						End Site
						{
							OFFSET 0.000000 0.000000 0.000000
						}
					}
				}
			}
		}
	}
	JOINT RHipJoint
	{
		OFFSET 0.000000 0.000000 0.000000
		CHANNELS 3 Zrotation Yrotation Xrotation
		JOINT RightUpLeg
		{
			OFFSET -1.305520 -1.794630 0.839290
			CHANNELS 3 Zrotation Yrotation Xrotation
			JOINT RightLeg
			{
				OFFSET -2.542530 -6.985550 0.000000
				CHANNELS 3 Zrotation Yrotation Xrotation
				JOINT RightFoot
				{
					OFFSET -2.568260 -7.056230 0.000000
					CHANNELS 3 Zrotation Yrotation Xrotation
					JOINT RightToeBase
					{
						OFFSET -0.164730 -0.452590 2.363150
						CHANNELS 3 Zrotation Yrotation Xrotation
						End Site
						{
							OFFSET 0.000000 0.000000 0.000000
						}
					}
				}
			}
		}
	}
	JOINT LowerBack
	{
		OFFSET 0.000000 0.000000 0.000000
		CHANNELS 3 Zrotation Yrotation Xrotation
		JOINT Spine
		{
			OFFSET 0.028270 2.035590 -0.193380
			CHANNELS 3 Zrotation Yrotation Xrotation
			JOINT Spine1
			{
				OFFSET 0.056720 2.048850 -0.042750
				CHANNELS 3 Zrotation Yrotation Xrotation
				JOINT Neck
				{
					OFFSET 0.000000 0.000000 0.000000
					CHANNELS 3 Zrotation Yrotation Xrotation
					JOINT Neck1
					{
						OFFSET -0.054170 1.746240 0.172020
						CHANNELS 3 Zrotation Yrotation Xrotation
						JOINT Head
						{
							OFFSET 0.104070 1.761360 -0.123970
							CHANNELS 3 Zrotation Yrotation Xrotation
							End Site
							{
								OFFSET 0.000000 0.000000 0.000000
							}
						}
					}
				}
				JOINT LeftShoulder
				{
					OFFSET 0.000000 0.000000 0.000000
					CHANNELS 3 Zrotation Yrotation Xrotation
					JOINT LeftArm
					{
						OFFSET 3.362410 1.200890 -0.311210
						CHANNELS 3 Zrotation Yrotation Xrotation
						JOINT LeftForeArm
						{
							OFFSET 4.983000 -0.000000 -0.000000
							CHANNELS 3 Zrotation Yrotation Xrotation
							JOINT LeftHand
							{
								OFFSET 3.483560 -0.000000 -0.000000
								CHANNELS 3 Zrotation Yrotation Xrotation
								JOINT LeftFingerBase
								{
									OFFSET 0.000000 0.000000 0.000000
									CHANNELS 3 Zrotation Yrotation Xrotation
									JOINT LeftHandIndex1
									{
										OFFSET 0.715260 -0.000000 -0.000000
										CHANNELS 3 Zrotation Yrotation Xrotation
										End Site
										{
											OFFSET 0.000000 0.000000 0.000000
										}
									}
								}
								JOINT LThumb
								{
									OFFSET 0.000000 0.000000 0.000000
									CHANNELS 3 Zrotation Yrotation Xrotation
									End Site
									{
										OFFSET 0.000000 0.000000 0.000000
									}
								}
							}
						}
					}
				}
				JOINT RightShoulder
				{
					OFFSET 0.000000 0.000000 0.000000
					CHANNELS 3 Zrotation Yrotation Xrotation
					JOINT RightArm
					{
						OFFSET -3.136600 1.374050 -0.404650
						CHANNELS 3 Zrotation Yrotation Xrotation
						JOINT RightForeArm
						{
							OFFSET -5.241900 -0.000000 -0.000000
							CHANNELS 3 Zrotation Yrotation Xrotation
							JOINT RightHand
							{
								OFFSET -3.444170 -0.000000 -0.000000
								CHANNELS 3 Zrotation Yrotation Xrotation
								JOINT RightFingerBase
								{
									OFFSET 0.000000 0.000000 0.000000
									CHANNELS 3 Zrotation Yrotation Xrotation
									JOINT RightHandIndex1
									{
										OFFSET -0.622530 -0.000000 -0.000000
										CHANNELS 3 Zrotation Yrotation Xrotation
										End Site
										{
											OFFSET 0.000000 0.000000 0.000000
										}
									}
								}
								JOINT RThumb
								{
									OFFSET 0.000000 0.000000 0.000000
									CHANNELS 3 Zrotation Yrotation Xrotation
									End Site
									{
										OFFSET 0.000000 0.000000 0.000000
									}
								}
							}
						}
					}
				}
			}
		}
	}
}
MOTION
Frames: 12
Frame Time: 0.008333
-0.312835 17.628778 17.851208 -174.894856 -12.581218 -161.972769 20.500610 5.249800 -4.176950 -38.679914 -22.682885 0.102832 4.084910 8.705061 30.634343 -0.321265 -21.304804 -43.856777 1.729300 -8.277900 -23.561400 -23.725880 -7.778357 5.685989 12.960120 32.582196 -49.703024 -2.207779 -9.135693 16.859532 -5.238305 -14.111149 -39.301554 -1.237200 7.053500 -19.873900 -8.397789 -3.915589 -24.943168 2.994572 -3.814731 -5.853221 1.801013 -3.072009 19.048339 -13.729633 -7.888726 3.631727 17.452096 -20.546126 37.636406 1.547200 -8.663200 6.649400 18.810307 -3.095484 1.465027 -97.897862 3.533092 24.895477 21.286467 -23.468139 -4.460891 -0.396912 0.216597 -2.407178 20.502633 -10.949664 -4.230500 -7.125000 0.000000 0.000000 -4.371200 18.059700 2.809000 -10.939155 1.408633 1.628490 103.633281 -14.633896 -0.205767 -17.862916 26.813582 -3.984785 0.095103 -0.331594 -0.516647 -12.645754 -52.553779 10.127700 7.125000 0.000000 0.000000 63.373200 -75.751900 -49.614300 
-0.276121 17.604847 17.760702 -174.738389 -12.841363 -161.996090 20.481468 5.256168 -4.263769 -38.359963 -22.514800 0.434491 4.117055 8.674415 30.657525 -0.209662 -21.154648 -44.034260 1.979500 -8.823300 -25.244000 -23.745927 -7.779571 5.715992 13.010523 32.524019 -49.624474 -2.202737 -9.068290 16.662157 -5.246355 -14.250680 -39.079617 -1.186500 6.912500 -19.456500 -8.238910 -3.954862 -25.090617 2.966794 -3.915068 -5.853506 1.587271 -3.097490 19.024368 -14.392983 -7.636001 3.082769 17.875351 -20.617817 39.014174 1.688500 -8.641800 7.108300 18.861822 -3.069794 1.499057 -97.589547 3.706503 25.355898 21.652740 -23.993957 -4.652943 -0.400648 0.158965 -2.568921 21.131851 -9.216415 -3.680600 -7.125000 0.000000 0.000000 -3.878900 19.914500 2.331000 -10.916844 1.433967 1.682878 103.776934 -14.894286 0.028386 -17.908886 26.872303 -4.003173 0.094502 -0.331385 -0.670315 -13.110519 -51.403705 10.338600 7.125000 0.000000 0.000000 58.887400 -75.489800 -45.372700 
-0.233066 17.578564 17.665491 -174.431950 -13.088052 -162.245546 20.446304 5.279014 -4.422612 -37.865054 -22.050581 0.984971 4.167262 8.590144 30.582230 0.022261 -20.785964 -44.340872 2.486300 -9.813000 -28.373300 -23.768684 -7.766762 5.736038 13.559935 32.451089 -49.338454 -2.210803 -9.122488 16.812377 -5.234065 -14.385442 -38.642655 -1.413500 7.519500 -21.263700 -8.023629 -3.919205 -25.092106 2.899148 -3.938884 -5.846841 1.528875 -3.084673 19.197207 -13.725459 -7.982836 3.904266 17.609395 -20.995618 38.026184 1.541200 -8.890800 6.710300 18.901669 -3.122851 1.459542 -97.281218 3.666945 25.401746 21.665089 -23.981346 -4.647032 -0.415950 0.196583 -2.187365 21.512902 -10.358075 -4.218800 -7.125000 0.000000 0.000000 -3.627100 18.627100 2.283100 -10.929761 1.387421 1.659730 103.979384 -15.193116 0.257126 -18.047899 27.081920 -4.069341 0.084905 -0.315118 -1.064848 -13.708987 -55.414052 11.376700 7.125000 0.000000 0.000000 74.667400 -76.864700 -61.294900 
-0.181319 17.552077 17.567111 -173.805701 -13.465131 -162.835682 20.426015 5.297234 -4.638784 -36.996734 -21.454905 1.767063 4.231466 8.443494 30.527287 0.070863 -20.924034 -44.515058 2.625000 -10.061700 -29.176600 -23.895151 -7.696259 5.703944 14.645995 32.692419 -48.449161 -2.207008 -9.112953 16.799281 -5.260679 -14.859209 -38.273882 -1.611600 8.005300 -22.730300 -7.649541 -3.875638 -24.825097 2.994339 -3.982385 -5.734498 1.484005 -3.068657 19.276030 -13.279807 -8.164688 4.436950 17.468398 -21.190502 37.378719 1.463600 -9.023600 6.449900 18.937292 -3.157803 1.428682 -96.937348 3.648977 25.716547 21.785995 -24.128488 -4.705007 -0.426577 0.209882 -2.137496 21.849523 -10.824484 -4.484000 -7.125000 0.000000 0.000000 -3.398100 18.084900 2.179200 -10.951769 1.354996 1.656433 104.227015 -15.478749 0.183318 -18.185825 27.283934 -4.132186 0.091848 -0.323381 -1.309580 -12.395867 -55.139750 10.251700 7.125000 0.000000 0.000000 73.711300 -76.327200 -59.790800 
-0.132333 17.527840 17.471491 -173.451655 -13.846355 -163.203678 20.414009 5.286521 -4.757604 -36.431767 -21.241929 2.309368 4.274198 8.377146 30.682646 -0.063392 -21.473110 -44.536491 2.333600 -9.528900 -27.464200 -23.985501 -7.646502 5.679473 15.316069 32.686165 -47.796224 -2.216785 -9.042465 16.615007 -5.274780 -15.065782 -38.071742 -1.681200 8.167800 -23.224900 -7.510491 -3.909989 -24.579352 3.060554 -4.074409 -5.736061 1.504747 -3.096642 19.243191 -13.024861 -8.171567 4.797875 17.354315 -21.147274 36.934668 1.436800 -9.031000 6.270700 18.956605 -3.185776 1.414252 -96.690642 3.725734 25.918096 21.967424 -24.364200 -4.797610 -0.420785 0.211016 -2.218970 21.644471 -10.818852 -4.435700 -7.125000 0.000000 0.000000 -3.546600 18.107100 2.273000 -10.971056 1.342008 1.672063 104.342042 -15.849931 0.218127 -18.327708 27.467452 -4.194271 0.101370 -0.333331 -1.364913 -11.070963 -54.133907 9.047600 7.125000 0.000000 0.000000 70.060700 -75.618700 -55.575100 
-0.090915 17.504932 17.380167 -173.597790 -14.067876 -163.138381 20.384952 5.282776 -4.772887 -36.390104 -21.256465 2.519449 4.286891 8.382660 30.853649 -0.205208 -21.892211 -44.452383 2.118400 -9.108400 -26.135100 -23.951984 -7.661934 5.706162 15.210258 32.306022 -47.868358 -2.249112 -9.047387 16.648571 -5.245464 -14.800159 -37.843211 -1.807600 8.453200 -24.099400 -7.717365 -4.014631 -24.634878 3.019448 -4.155987 -5.737737 1.558692 -3.157721 19.253168 -13.101435 -8.127431 4.451432 17.139319 -21.019022 37.446839 1.390200 -8.961400 6.425000 18.970353 -3.157615 1.424205 -96.546765 3.757791 25.942016 22.147930 -24.615049 -4.890489 -0.416400 0.211693 -2.104467 21.465124 -10.832116 -4.400300 -7.125000 0.000000 0.000000 -3.676000 18.108900 2.356200 -10.969165 1.378639 1.702032 104.314488 -16.127467 0.476178 -18.440673 27.604887 -4.241044 0.103438 -0.334479 -1.674581 -11.007563 -53.830687 8.961400 7.125000 0.000000 0.000000 68.924200 -75.516900 -54.409900 
-0.048577 17.482024 17.290376 -173.693247 -14.215175 -163.124352 20.343939 5.301909 -4.839550 -36.247021 -21.027020 2.782266 4.308997 8.352840 30.911185 -0.317432 -22.144286 -44.290464 2.142100 -9.155900 -26.284300 -23.926610 -7.673133 5.744761 15.102476 32.158143 -47.922365 -2.262885 -9.062173 16.714606 -5.226899 -14.668724 -37.616279 -1.918000 8.693100 -24.839800 -7.845522 -4.071738 -24.706825 2.979252 -4.186217 -5.623543 1.565218 -3.186116 19.340560 -13.414989 -8.074535 4.068178 17.384403 -21.056122 37.939238 1.455000 -8.937500 6.630000 19.002613 -3.135696 1.431821 -96.391509 3.731245 25.904343 22.415379 -25.000479 -5.029983 -0.413733 0.203814 -2.091938 21.356618 -10.690179 -4.317200 -7.125000 0.000000 0.000000 -3.749300 18.278800 2.389300 -10.962409 1.390259 1.709402 104.256783 -16.143297 0.755473 -18.382010 27.524549 -4.214470 0.101849 -0.335767 -2.073093 -11.923369 -53.215643 9.627700 7.125000 0.000000 0.000000 66.201300 -75.687700 -52.100300 
0.002045 17.460344 17.198540 -173.499781 -14.408727 -163.349508 20.310528 5.315760 -4.968693 -35.740809 -20.649922 3.180444 4.351877 8.302458 31.038457 -0.471715 -22.571989 -44.149977 2.060500 -8.991000 -25.767200 -23.979362 -7.644165 5.749360 15.377972 32.389494 -47.547961 -2.250209 -9.026985 16.647067 -5.245170 -14.914980 -37.350921 -2.036900 8.942600 -25.615900 -7.838760 -4.076568 -24.572124 3.005284 -4.192590 -5.535095 1.635190 -3.188495 19.419480 -13.472967 -8.114207 4.492271 17.725750 -21.283973 37.515111 1.543900 -9.054100 6.504100 19.039547 -3.182136 1.416187 -96.209164 3.722555 25.960282 22.727503 -25.431154 -5.194501 -0.406574 0.180774 -2.449932 21.214914 -10.066641 -4.035400 -7.125000 0.000000 0.000000 -3.836300 18.978300 2.385500 -10.970989 1.345910 1.695686 104.223933 -16.235390 1.017912 -18.361862 27.497715 -4.211805 0.100059 -0.337749 -2.311777 -13.607684 -52.487990 10.887100 7.125000 0.000000 0.000000 62.595100 -76.095300 -49.279700 
0.050827 17.439993 17.104864 -173.283672 -14.654877 -163.505213 20.294884 5.311479 -5.074802 -35.238118 -20.437730 3.543238 4.386849 8.252977 31.167034 -0.671846 -23.107599 -43.982726 1.779100 -8.390100 -23.905200 -24.046325 -7.612199 5.742556 15.806629 32.446053 -47.113194 -2.250961 -8.942820 16.426197 -5.247584 -14.991560 -37.143085 -2.093600 9.058400 -25.978200 -7.764141 -4.046231 -24.444266 3.019415 -4.181293 -5.530312 1.669883 -3.173614 19.420679 -13.522762 -8.025476 4.973211 18.010234 -21.354040 37.167849 1.641100 -9.100500 6.377500 19.067063 -3.237098 1.409419 -95.970214 3.724675 26.243732 22.944973 -25.717792 -5.312532 -0.404559 0.166672 -2.770619 21.245673 -9.665500 -3.880800 -7.125000 0.000000 0.000000 -3.805900 19.416700 2.329300 -10.970626 1.311587 1.702426 104.308854 -16.529678 1.234350 -18.522226 27.696750 -4.279111 0.094042 -0.319091 -2.616652 -13.127191 -56.400749 11.016900 7.125000 0.000000 0.000000 78.927700 -76.749200 -65.284600 
0.093267 17.416983 17.008835 -173.391663 -14.891655 -163.425953 20.276450 5.307018 -5.115233 -35.135181 -20.408283 3.803637 4.407060 8.227084 31.246054 -0.888468 -23.517803 -43.657683 1.572300 -7.911700 -22.446200 -24.058284 -7.617810 5.754495 16.015609 32.004428 -46.963223 -2.292422 -8.862956 16.197420 -5.225938 -14.694548 -37.263246 -2.075500 9.021500 -25.862700 -7.789620 -4.040864 -24.464302 2.891508 -4.180648 -5.512702 1.567779 -3.171287 19.359709 -13.824026 -7.781885 4.558412 18.176489 -21.220105 38.060285 1.701900 -8.989300 6.659100 19.102526 -3.216739 1.433269 -95.671529 3.771928 26.500961 23.097391 -25.921932 -5.396556 -0.405684 0.173020 -2.948839 21.208008 -9.903649 -3.968800 -7.125000 0.000000 0.000000 -3.838500 19.157300 2.371600 -10.953493 1.343293 1.752384 104.459704 -16.798703 1.268036 -18.614074 27.809892 -4.314643 0.102738 -0.325663 -2.430759 -10.899692 -55.346064 9.038400 7.125000 0.000000 0.000000 74.858400 -75.801900 -60.299800 
0.139083 17.390291 16.910761 -173.627281 -15.063076 -163.294154 20.242134 5.306913 -5.135865 -35.126368 -20.365629 4.010274 4.424869 8.218663 31.363141 -1.149876 -23.999059 -43.263409 1.338600 -7.325700 -20.683900 -24.012574 -7.638513 5.782879 15.871657 31.680000 -47.076788 -2.321558 -8.891664 16.286186 -5.220310 -14.550246 -37.386216 -2.250400 9.369300 -26.957500 -7.999254 -4.109253 -24.557781 2.778101 -4.215674 -5.462725 1.615391 -3.209357 19.477834 -13.710014 -7.983087 4.483341 18.008653 -21.368608 38.006972 1.628200 -9.067600 6.647000 19.129369 -3.200917 1.417495 -95.533215 3.810931 26.538881 23.304507 -26.198295 -5.506986 -0.412472 0.171558 -3.109704 21.387142 -10.072930 -4.072200 -7.125000 0.000000 0.000000 -3.711300 18.962700 2.308700 -10.957644 1.347854 1.755014 104.411421 -17.040483 1.680313 -18.716393 27.938046 -4.360372 0.109552 -0.335903 -2.755818 -10.841627 -53.731006 8.814400 7.125000 0.000000 0.000000 68.604500 -75.426200 -54.015200 
0.187967 17.364520 16.814119 -173.674087 -15.228989 -163.146884 20.207839 5.301792 -5.155446 -34.859609 -20.357138 4.110573 4.445547 8.236438 31.537490 -1.281563 -24.317630 -43.157105 1.235800 -7.049500 -19.862100 -23.957436 -7.641409 5.800267 15.617792 31.741351 -47.292956 -2.319594 -8.975579 16.534705 -5.221333 -14.519109 -37.518611 -2.304000 9.472500 -27.285000 -8.104536 -4.198095 -24.667982 2.829492 -4.287543 -5.419253 1.683398 -3.257266 19.591232 -13.703891 -8.046631 4.323893 17.905519 -21.364415 38.065668 1.596700 -9.062200 6.681600 19.139241 -3.186272 1.413113 -95.512292 3.841267 26.443599 23.536757 -26.515043 -5.633225 -0.418372 0.167410 -3.241839 21.510599 -10.214887 -4.153100 -7.125000 0.000000 0.000000 -3.623700 18.804600 2.266700 -10.967666 1.361506 1.758386 104.195115 -17.221547 2.234967 -18.777877 27.994553 -4.385334 0.112874 -0.338000 -2.940465 -10.618479 -53.703245 8.631500 7.125000 0.000000 0.000000 68.581600 -75.334300 -53.892900 
